<mxfile host="65bd71144e" modified="2020-11-11T13:43:05.534Z" agent="5.0 (Windows NT 10.0; Win64; x64) AppleWebKit/537.36 (KHTML, like Gecko) Code/1.50.1 Chrome/83.0.4103.122 Electron/9.2.1 Safari/537.36" version="13.6.5" etag="iuvAkhiDID_q_xYqK6M_">
    <diagram id="7W0-TtzeQGhmsaF0MkAB" name="Page-1">
        <mxGraphModel dx="1300" dy="449" grid="1" gridSize="10" guides="1" tooltips="1" connect="1" arrows="1" fold="1" page="1" pageScale="1" pageWidth="827" pageHeight="1169" math="0" shadow="0">
            <root>
                <mxCell id="0"/>
                <mxCell id="1" parent="0"/>
                <mxCell id="2" value="" style="shape=cylinder;whiteSpace=wrap;html=1;boundedLbl=1;backgroundOutline=1;" vertex="1" parent="1">
                    <mxGeometry x="340" y="370" width="60" height="80" as="geometry"/>
                </mxCell>
                <mxCell id="3" value="" style="html=1;dashed=0;whitespace=wrap;shape=partialRectangle;right=0;left=0;" vertex="1" parent="1">
                    <mxGeometry x="164" y="240" width="576" height="100" as="geometry"/>
                </mxCell>
                <mxCell id="18" style="edgeStyle=orthogonalEdgeStyle;rounded=0;orthogonalLoop=1;jettySize=auto;html=1;entryX=0;entryY=0.75;entryDx=0;entryDy=0;" edge="1" parent="1" source="4" target="9">
                    <mxGeometry relative="1" as="geometry"/>
                </mxCell>
                <mxCell id="4" value="UAU.Seguranca" style="html=1;dashed=0;whitespace=wrap;" vertex="1" parent="1">
                    <mxGeometry x="180" y="265" width="100" height="50" as="geometry"/>
                </mxCell>
                <mxCell id="5" value="UAU.Comp" style="html=1;dashed=0;whitespace=wrap;" vertex="1" parent="1">
                    <mxGeometry x="350" y="265" width="100" height="50" as="geometry"/>
                </mxCell>
                <mxCell id="6" value="UAU.Repositorio" style="html=1;dashed=0;whitespace=wrap;" vertex="1" parent="1">
                    <mxGeometry x="460" y="265" width="100" height="50" as="geometry"/>
                </mxCell>
                <mxCell id="7" value="UAU.DAL" style="html=1;dashed=0;whitespace=wrap;" vertex="1" parent="1">
                    <mxGeometry x="570" y="265" width="100" height="50" as="geometry"/>
                </mxCell>
                <mxCell id="8" value="" style="html=1;dashed=0;whitespace=wrap;shape=partialRectangle;right=0;left=0;" vertex="1" parent="1">
                    <mxGeometry x="164" y="130" width="576" height="100" as="geometry"/>
                </mxCell>
                <mxCell id="14" style="edgeStyle=orthogonalEdgeStyle;rounded=0;orthogonalLoop=1;jettySize=auto;html=1;entryX=0.5;entryY=0;entryDx=0;entryDy=0;exitX=0;exitY=0.25;exitDx=0;exitDy=0;" edge="1" parent="1" source="9" target="4">
                    <mxGeometry relative="1" as="geometry"/>
                </mxCell>
                <mxCell id="9" value="UAU.Seguranca.Services" style="html=1;dashed=0;whitespace=wrap;" vertex="1" parent="1">
                    <mxGeometry x="340" y="155" width="180" height="50" as="geometry"/>
                </mxCell>
                <mxCell id="10" style="edgeStyle=orthogonalEdgeStyle;rounded=0;orthogonalLoop=1;jettySize=auto;html=1;exitX=0.5;exitY=0;exitDx=0;exitDy=0;entryX=0.599;entryY=0.092;entryDx=0;entryDy=0;entryPerimeter=0;" edge="1" parent="1" source="9" target="9">
                    <mxGeometry relative="1" as="geometry"/>
                </mxCell>
                <mxCell id="11" value="" style="html=1;dashed=0;whitespace=wrap;shape=partialRectangle;right=0;left=0;" vertex="1" parent="1">
                    <mxGeometry x="164" y="20" width="576" height="100" as="geometry"/>
                </mxCell>
                <mxCell id="12" value="UAU.Seguranca.UI.Forms" style="html=1;dashed=0;whitespace=wrap;" vertex="1" parent="1">
                    <mxGeometry x="350" y="40" width="180" height="50" as="geometry"/>
                </mxCell>
            </root>
        </mxGraphModel>
    </diagram>
</mxfile>